<svg xmlns="http://www.w3.org/2000/svg" xmlns:xlink="http://www.w3.org/1999/xlink" width="1250" zoomAndPan="magnify" viewBox="0 0 937.5 225" height="300" preserveAspectRatio="xMidYMid meet" version="1.0"><defs><g/><clipPath id="7d1ab5c081"><path d="M 790.144531 102 L 807.617188 102 L 807.617188 117.378906 L 790.144531 117.378906 Z M 790.144531 102 " clip-rule="nonzero"/></clipPath><clipPath id="f11df90143"><path d="M 759.824219 98.625 L 788.199219 49.796875 L 867.507812 95.886719 L 839.132812 144.710938 Z M 759.824219 98.625 " clip-rule="nonzero"/></clipPath><clipPath id="0350718530"><path d="M 759.824219 98.625 L 788.199219 49.796875 L 867.507812 95.886719 L 839.132812 144.710938 Z M 759.824219 98.625 " clip-rule="nonzero"/></clipPath><clipPath id="701b19fd20"><path d="M 784 94.085938 L 800.960938 94.085938 L 800.960938 109.894531 L 784 109.894531 Z M 784 94.085938 " clip-rule="nonzero"/></clipPath><clipPath id="ea16eac49a"><path d="M 759.824219 98.625 L 788.199219 49.796875 L 867.507812 95.886719 L 839.132812 144.710938 Z M 759.824219 98.625 " clip-rule="nonzero"/></clipPath><clipPath id="640f72909f"><path d="M 759.824219 98.625 L 788.199219 49.796875 L 867.507812 95.886719 L 839.132812 144.710938 Z M 759.824219 98.625 " clip-rule="nonzero"/></clipPath><clipPath id="ede42f1c8c"><path d="M 778.496094 87.84375 L 794.304688 87.84375 L 794.304688 102.820312 L 778.496094 102.820312 Z M 778.496094 87.84375 " clip-rule="nonzero"/></clipPath><clipPath id="160fe7909b"><path d="M 759.824219 98.625 L 788.199219 49.796875 L 867.507812 95.886719 L 839.132812 144.710938 Z M 759.824219 98.625 " clip-rule="nonzero"/></clipPath><clipPath id="f00cb5b4be"><path d="M 759.824219 98.625 L 788.199219 49.796875 L 867.507812 95.886719 L 839.132812 144.710938 Z M 759.824219 98.625 " clip-rule="nonzero"/></clipPath><clipPath id="4f78d04b34"><path d="M 779 61.222656 L 795 61.222656 L 795 77.445312 L 779 77.445312 Z M 779 61.222656 " clip-rule="nonzero"/></clipPath><clipPath id="4b4e3e0abb"><path d="M 759.824219 98.625 L 788.199219 49.796875 L 867.507812 95.886719 L 839.132812 144.710938 Z M 759.824219 98.625 " clip-rule="nonzero"/></clipPath><clipPath id="3841f29420"><path d="M 759.824219 98.625 L 788.199219 49.796875 L 867.507812 95.886719 L 839.132812 144.710938 Z M 759.824219 98.625 " clip-rule="nonzero"/></clipPath><clipPath id="84b5e3e0f2"><path d="M 792.640625 70 L 856.703125 70 L 856.703125 113.636719 L 792.640625 113.636719 Z M 792.640625 70 " clip-rule="nonzero"/></clipPath><clipPath id="9830395c96"><path d="M 759.824219 98.625 L 788.199219 49.796875 L 867.507812 95.886719 L 839.132812 144.710938 Z M 759.824219 98.625 " clip-rule="nonzero"/></clipPath><clipPath id="d519a854b0"><path d="M 759.824219 98.625 L 788.199219 49.796875 L 867.507812 95.886719 L 839.132812 144.710938 Z M 759.824219 98.625 " clip-rule="nonzero"/></clipPath><clipPath id="102fdba02a"><path d="M 813.441406 110 L 840.894531 110 L 840.894531 141.925781 L 813.441406 141.925781 Z M 813.441406 110 " clip-rule="nonzero"/></clipPath><clipPath id="232714f6b4"><path d="M 759.824219 98.625 L 788.199219 49.796875 L 867.507812 95.886719 L 839.132812 144.710938 Z M 759.824219 98.625 " clip-rule="nonzero"/></clipPath><clipPath id="0bc2fb8b3b"><path d="M 759.824219 98.625 L 788.199219 49.796875 L 867.507812 95.886719 L 839.132812 144.710938 Z M 759.824219 98.625 " clip-rule="nonzero"/></clipPath><clipPath id="1c1ea54e47"><path d="M 797 109.476562 L 810.113281 109.476562 L 810.113281 121.957031 L 797 121.957031 Z M 797 109.476562 " clip-rule="nonzero"/></clipPath><clipPath id="3f77c8d179"><path d="M 759.824219 98.625 L 788.199219 49.796875 L 867.507812 95.886719 L 839.132812 144.710938 Z M 759.824219 98.625 " clip-rule="nonzero"/></clipPath><clipPath id="4fffb1a150"><path d="M 759.824219 98.625 L 788.199219 49.796875 L 867.507812 95.886719 L 839.132812 144.710938 Z M 759.824219 98.625 " clip-rule="nonzero"/></clipPath><clipPath id="07d6b0de4b"><path d="M 825.085938 74.117188 L 866.273438 74.117188 L 866.273438 99 L 825.085938 99 Z M 825.085938 74.117188 " clip-rule="nonzero"/></clipPath><clipPath id="a31136483b"><path d="M 759.824219 98.625 L 788.199219 49.796875 L 867.507812 95.886719 L 839.132812 144.710938 Z M 759.824219 98.625 " clip-rule="nonzero"/></clipPath><clipPath id="4826453ee5"><path d="M 759.824219 98.625 L 788.199219 49.796875 L 867.507812 95.886719 L 839.132812 144.710938 Z M 759.824219 98.625 " clip-rule="nonzero"/></clipPath><clipPath id="4bcf05f8ca"><path d="M 810 65.378906 L 819 65.378906 L 819 71.621094 L 810 71.621094 Z M 810 65.378906 " clip-rule="nonzero"/></clipPath><clipPath id="5fe0e14f55"><path d="M 759.824219 98.625 L 788.199219 49.796875 L 867.507812 95.886719 L 839.132812 144.710938 Z M 759.824219 98.625 " clip-rule="nonzero"/></clipPath><clipPath id="341a454307"><path d="M 759.824219 98.625 L 788.199219 49.796875 L 867.507812 95.886719 L 839.132812 144.710938 Z M 759.824219 98.625 " clip-rule="nonzero"/></clipPath><clipPath id="48a5d229ee"><path d="M 741.671875 152.378906 L 885.503906 152.378906 L 885.503906 174.53125 L 741.671875 174.53125 Z M 741.671875 152.378906 " clip-rule="nonzero"/></clipPath><clipPath id="8e48af38c2"><path d="M 745.90625 154.75 L 881.3125 154.75 L 881.3125 172.84375 L 745.90625 172.84375 Z M 745.90625 154.75 " clip-rule="nonzero"/></clipPath></defs><path fill="#89a1ef" d="M 22.214844 165.460938 L 714.769531 165.460938 L 714.769531 177.1875 L 22.214844 177.1875 Z M 22.214844 165.460938 " fill-opacity="0.302" fill-rule="nonzero"/><path fill="#89a1ef" d="M 16.929688 160.179688 L 709.484375 160.179688 L 709.484375 171.90625 L 16.929688 171.90625 Z M 16.929688 160.179688 " fill-opacity="0.502" fill-rule="nonzero"/><path fill="#89a1ef" d="M 11.648438 154.898438 L 704.203125 154.898438 L 704.203125 166.621094 L 11.648438 166.621094 Z M 11.648438 154.898438 " fill-opacity="1" fill-rule="nonzero"/><g fill="#89a1ef" fill-opacity="0.302"><g transform="translate(22.213323, 159.207377)"><g><path d="M 62.507812 0 L 91.433594 0 L 118.445312 -93.226562 L 94.777344 -93.226562 L 79.480469 -31.3125 L 77.089844 -93.226562 L 49.121094 -93.226562 L 30.476562 -31.3125 L 31.433594 -93.226562 L 7.769531 -93.226562 L 10.398438 0 L 39.203125 0 L 59.640625 -67.167969 Z M 62.507812 0 "/></g></g></g><g fill="#89a1ef" fill-opacity="0.302"><g transform="translate(144.709618, 159.207377)"><g><path d="M 57.726562 -93.226562 L 53.066406 -57.371094 L 30.359375 -57.371094 L 35.019531 -93.226562 L 12.308594 -93.226562 L 0.121094 0 L 22.828125 0 L 27.726562 -37.769531 L 50.4375 -37.769531 L 45.535156 0 L 68.246094 0 L 80.4375 -93.226562 Z M 57.726562 -93.226562 "/></g></g></g><g fill="#89a1ef" fill-opacity="0.302"><g transform="translate(233.743827, 159.207377)"><g><path d="M 12.308594 -93.226562 L 0.121094 0 L 58.683594 0 L 61.195312 -19.601562 L 25.339844 -19.601562 L 27.726562 -37.769531 L 57.609375 -37.769531 L 60.238281 -57.371094 L 30.359375 -57.371094 L 32.507812 -73.625 L 68.363281 -73.625 L 70.875 -93.226562 Z M 12.308594 -93.226562 "/></g></g></g><g fill="#89a1ef" fill-opacity="0.302"><g transform="translate(312.022357, 159.207377)"><g><path d="M 29.519531 -51.632812 L 32.507812 -73.625 L 42.90625 -73.625 C 47.328125 -73.625 51.992188 -72.191406 51.152344 -63.34375 L 51.035156 -62.03125 C 50.199219 -53.425781 44.339844 -51.632812 39.917969 -51.632812 Z M 27.011719 -32.03125 L 33.347656 -32.03125 L 41.355469 0 L 65.855469 0 L 55.933594 -35.136719 C 64.660156 -38.722656 71.832031 -46.253906 73.863281 -61.433594 L 74.222656 -64.0625 C 77.6875 -89.878906 60.238281 -93.226562 44.460938 -93.226562 L 12.308594 -93.226562 L 0.121094 0 L 22.828125 0 Z M 27.011719 -32.03125 "/></g></g></g><g fill="#89a1ef" fill-opacity="0.302"><g transform="translate(396.873812, 159.207377)"><g><path d="M 12.308594 -93.226562 L 0.121094 0 L 58.683594 0 L 61.195312 -19.601562 L 25.339844 -19.601562 L 27.726562 -37.769531 L 57.609375 -37.769531 L 60.238281 -57.371094 L 30.359375 -57.371094 L 32.507812 -73.625 L 68.363281 -73.625 L 70.875 -93.226562 Z M 12.308594 -93.226562 "/></g></g></g><g fill="#89a1ef" fill-opacity="0.302"><g transform="translate(475.152343, 159.207377)"><g/></g></g><g fill="#89a1ef" fill-opacity="0.302"><g transform="translate(508.01806, 159.207377)"><g><path d="M 29.519531 -51.632812 L 32.507812 -73.625 L 42.90625 -73.625 C 47.328125 -73.625 51.992188 -72.191406 51.152344 -63.34375 L 51.035156 -62.03125 C 50.199219 -53.425781 44.339844 -51.632812 39.917969 -51.632812 Z M 27.011719 -32.03125 L 33.347656 -32.03125 L 41.355469 0 L 65.855469 0 L 55.933594 -35.136719 C 64.660156 -38.722656 71.832031 -46.253906 73.863281 -61.433594 L 74.222656 -64.0625 C 77.6875 -89.878906 60.238281 -93.226562 44.460938 -93.226562 L 12.308594 -93.226562 L 0.121094 0 L 22.828125 0 Z M 27.011719 -32.03125 "/></g></g></g><g fill="#89a1ef" fill-opacity="0.302"><g transform="translate(592.869515, 159.207377)"><g/></g></g><g fill="#89a1ef" fill-opacity="0.302"><g transform="translate(625.735232, 159.207377)"><g><path d="M 34.660156 1.671875 C 61.671875 1.671875 70.15625 -10.039062 72.667969 -29.640625 L 81.035156 -93.226562 L 58.324219 -93.226562 L 50.078125 -30.238281 C 49.121094 -22.828125 45.894531 -17.929688 35.976562 -17.929688 C 26.054688 -17.929688 25.21875 -22.828125 26.175781 -30.238281 L 34.421875 -93.226562 L 11.710938 -93.226562 L 3.347656 -29.640625 C 0.835938 -10.039062 7.648438 1.671875 34.660156 1.671875 Z M 34.660156 1.671875 "/></g></g></g><g fill="#89a1ef" fill-opacity="0.502"><g transform="translate(16.9311, 153.92515)"><g><path d="M 62.507812 0 L 91.433594 0 L 118.445312 -93.226562 L 94.777344 -93.226562 L 79.480469 -31.3125 L 77.089844 -93.226562 L 49.121094 -93.226562 L 30.476562 -31.3125 L 31.433594 -93.226562 L 7.769531 -93.226562 L 10.398438 0 L 39.203125 0 L 59.640625 -67.167969 Z M 62.507812 0 "/></g></g></g><g fill="#89a1ef" fill-opacity="0.502"><g transform="translate(139.427394, 153.92515)"><g><path d="M 57.726562 -93.226562 L 53.066406 -57.371094 L 30.359375 -57.371094 L 35.019531 -93.226562 L 12.308594 -93.226562 L 0.121094 0 L 22.828125 0 L 27.726562 -37.769531 L 50.4375 -37.769531 L 45.535156 0 L 68.246094 0 L 80.4375 -93.226562 Z M 57.726562 -93.226562 "/></g></g></g><g fill="#89a1ef" fill-opacity="0.502"><g transform="translate(228.461603, 153.92515)"><g><path d="M 12.308594 -93.226562 L 0.121094 0 L 58.683594 0 L 61.195312 -19.601562 L 25.339844 -19.601562 L 27.726562 -37.769531 L 57.609375 -37.769531 L 60.238281 -57.371094 L 30.359375 -57.371094 L 32.507812 -73.625 L 68.363281 -73.625 L 70.875 -93.226562 Z M 12.308594 -93.226562 "/></g></g></g><g fill="#89a1ef" fill-opacity="0.502"><g transform="translate(306.740134, 153.92515)"><g><path d="M 29.519531 -51.632812 L 32.507812 -73.625 L 42.90625 -73.625 C 47.328125 -73.625 51.992188 -72.191406 51.152344 -63.34375 L 51.035156 -62.03125 C 50.199219 -53.425781 44.339844 -51.632812 39.917969 -51.632812 Z M 27.011719 -32.03125 L 33.347656 -32.03125 L 41.355469 0 L 65.855469 0 L 55.933594 -35.136719 C 64.660156 -38.722656 71.832031 -46.253906 73.863281 -61.433594 L 74.222656 -64.0625 C 77.6875 -89.878906 60.238281 -93.226562 44.460938 -93.226562 L 12.308594 -93.226562 L 0.121094 0 L 22.828125 0 Z M 27.011719 -32.03125 "/></g></g></g><g fill="#89a1ef" fill-opacity="0.502"><g transform="translate(391.591589, 153.92515)"><g><path d="M 12.308594 -93.226562 L 0.121094 0 L 58.683594 0 L 61.195312 -19.601562 L 25.339844 -19.601562 L 27.726562 -37.769531 L 57.609375 -37.769531 L 60.238281 -57.371094 L 30.359375 -57.371094 L 32.507812 -73.625 L 68.363281 -73.625 L 70.875 -93.226562 Z M 12.308594 -93.226562 "/></g></g></g><g fill="#89a1ef" fill-opacity="0.502"><g transform="translate(469.870119, 153.92515)"><g/></g></g><g fill="#89a1ef" fill-opacity="0.502"><g transform="translate(502.735837, 153.92515)"><g><path d="M 29.519531 -51.632812 L 32.507812 -73.625 L 42.90625 -73.625 C 47.328125 -73.625 51.992188 -72.191406 51.152344 -63.34375 L 51.035156 -62.03125 C 50.199219 -53.425781 44.339844 -51.632812 39.917969 -51.632812 Z M 27.011719 -32.03125 L 33.347656 -32.03125 L 41.355469 0 L 65.855469 0 L 55.933594 -35.136719 C 64.660156 -38.722656 71.832031 -46.253906 73.863281 -61.433594 L 74.222656 -64.0625 C 77.6875 -89.878906 60.238281 -93.226562 44.460938 -93.226562 L 12.308594 -93.226562 L 0.121094 0 L 22.828125 0 Z M 27.011719 -32.03125 "/></g></g></g><g fill="#89a1ef" fill-opacity="0.502"><g transform="translate(587.587292, 153.92515)"><g/></g></g><g fill="#89a1ef" fill-opacity="0.502"><g transform="translate(620.453009, 153.92515)"><g><path d="M 34.660156 1.671875 C 61.671875 1.671875 70.15625 -10.039062 72.667969 -29.640625 L 81.035156 -93.226562 L 58.324219 -93.226562 L 50.078125 -30.238281 C 49.121094 -22.828125 45.894531 -17.929688 35.976562 -17.929688 C 26.054688 -17.929688 25.21875 -22.828125 26.175781 -30.238281 L 34.421875 -93.226562 L 11.710938 -93.226562 L 3.347656 -29.640625 C 0.835938 -10.039062 7.648438 1.671875 34.660156 1.671875 Z M 34.660156 1.671875 "/></g></g></g><g fill="#89a1ef" fill-opacity="1"><g transform="translate(11.648875, 148.642927)"><g><path d="M 62.507812 0 L 91.433594 0 L 118.445312 -93.226562 L 94.777344 -93.226562 L 79.480469 -31.3125 L 77.089844 -93.226562 L 49.121094 -93.226562 L 30.476562 -31.3125 L 31.433594 -93.226562 L 7.769531 -93.226562 L 10.398438 0 L 39.203125 0 L 59.640625 -67.167969 Z M 62.507812 0 "/></g></g></g><g fill="#89a1ef" fill-opacity="1"><g transform="translate(134.145169, 148.642927)"><g><path d="M 57.726562 -93.226562 L 53.066406 -57.371094 L 30.359375 -57.371094 L 35.019531 -93.226562 L 12.308594 -93.226562 L 0.121094 0 L 22.828125 0 L 27.726562 -37.769531 L 50.4375 -37.769531 L 45.535156 0 L 68.246094 0 L 80.4375 -93.226562 Z M 57.726562 -93.226562 "/></g></g></g><g fill="#89a1ef" fill-opacity="1"><g transform="translate(223.179378, 148.642927)"><g><path d="M 12.308594 -93.226562 L 0.121094 0 L 58.683594 0 L 61.195312 -19.601562 L 25.339844 -19.601562 L 27.726562 -37.769531 L 57.609375 -37.769531 L 60.238281 -57.371094 L 30.359375 -57.371094 L 32.507812 -73.625 L 68.363281 -73.625 L 70.875 -93.226562 Z M 12.308594 -93.226562 "/></g></g></g><g fill="#89a1ef" fill-opacity="1"><g transform="translate(301.457909, 148.642927)"><g><path d="M 29.519531 -51.632812 L 32.507812 -73.625 L 42.90625 -73.625 C 47.328125 -73.625 51.992188 -72.191406 51.152344 -63.34375 L 51.035156 -62.03125 C 50.199219 -53.425781 44.339844 -51.632812 39.917969 -51.632812 Z M 27.011719 -32.03125 L 33.347656 -32.03125 L 41.355469 0 L 65.855469 0 L 55.933594 -35.136719 C 64.660156 -38.722656 71.832031 -46.253906 73.863281 -61.433594 L 74.222656 -64.0625 C 77.6875 -89.878906 60.238281 -93.226562 44.460938 -93.226562 L 12.308594 -93.226562 L 0.121094 0 L 22.828125 0 Z M 27.011719 -32.03125 "/></g></g></g><g fill="#89a1ef" fill-opacity="1"><g transform="translate(386.309363, 148.642927)"><g><path d="M 12.308594 -93.226562 L 0.121094 0 L 58.683594 0 L 61.195312 -19.601562 L 25.339844 -19.601562 L 27.726562 -37.769531 L 57.609375 -37.769531 L 60.238281 -57.371094 L 30.359375 -57.371094 L 32.507812 -73.625 L 68.363281 -73.625 L 70.875 -93.226562 Z M 12.308594 -93.226562 "/></g></g></g><g fill="#89a1ef" fill-opacity="1"><g transform="translate(464.587894, 148.642927)"><g/></g></g><g fill="#89a1ef" fill-opacity="1"><g transform="translate(497.453611, 148.642927)"><g><path d="M 29.519531 -51.632812 L 32.507812 -73.625 L 42.90625 -73.625 C 47.328125 -73.625 51.992188 -72.191406 51.152344 -63.34375 L 51.035156 -62.03125 C 50.199219 -53.425781 44.339844 -51.632812 39.917969 -51.632812 Z M 27.011719 -32.03125 L 33.347656 -32.03125 L 41.355469 0 L 65.855469 0 L 55.933594 -35.136719 C 64.660156 -38.722656 71.832031 -46.253906 73.863281 -61.433594 L 74.222656 -64.0625 C 77.6875 -89.878906 60.238281 -93.226562 44.460938 -93.226562 L 12.308594 -93.226562 L 0.121094 0 L 22.828125 0 Z M 27.011719 -32.03125 "/></g></g></g><g fill="#89a1ef" fill-opacity="1"><g transform="translate(582.305066, 148.642927)"><g/></g></g><g fill="#89a1ef" fill-opacity="1"><g transform="translate(615.170784, 148.642927)"><g><path d="M 34.660156 1.671875 C 61.671875 1.671875 70.15625 -10.039062 72.667969 -29.640625 L 81.035156 -93.226562 L 58.324219 -93.226562 L 50.078125 -30.238281 C 49.121094 -22.828125 45.894531 -17.929688 35.976562 -17.929688 C 26.054688 -17.929688 25.21875 -22.828125 26.175781 -30.238281 L 34.421875 -93.226562 L 11.710938 -93.226562 L 3.347656 -29.640625 C 0.835938 -10.039062 7.648438 1.671875 34.660156 1.671875 Z M 34.660156 1.671875 "/></g></g></g><g clip-path="url(#7d1ab5c081)"><g clip-path="url(#f11df90143)"><g clip-path="url(#0350718530)"><path fill="#89a1ef" d="M 802.0625 102.136719 L 790.554688 111.148438 L 795.933594 117.292969 L 807.25 108.386719 Z M 802.0625 102.136719 " fill-opacity="1" fill-rule="nonzero"/></g></g></g><g clip-path="url(#701b19fd20)"><g clip-path="url(#ea16eac49a)"><g clip-path="url(#640f72909f)"><path fill="#89a1ef" d="M 795.429688 94.164062 L 784.171875 103.875 L 789.328125 109.761719 L 800.875 100.710938 Z M 795.429688 94.164062 " fill-opacity="1" fill-rule="nonzero"/></g></g></g><g clip-path="url(#ede42f1c8c)"><g clip-path="url(#160fe7909b)"><g clip-path="url(#f00cb5b4be)"><path fill="#89a1ef" d="M 790.984375 88.816406 C 790.867188 88.675781 790.738281 88.546875 790.597656 88.433594 C 790.457031 88.320312 790.304688 88.222656 790.140625 88.140625 C 789.980469 88.058594 789.8125 87.992188 789.636719 87.945312 C 789.460938 87.894531 789.28125 87.863281 789.101562 87.851562 C 788.917969 87.839844 788.738281 87.847656 788.558594 87.871094 C 788.378906 87.894531 788.203125 87.9375 788.03125 87.996094 C 787.859375 88.058594 787.695312 88.136719 787.539062 88.226562 C 787.382812 88.324219 787.238281 88.429688 787.105469 88.554688 L 779.007812 95.980469 C 778.90625 96.074219 778.820312 96.179688 778.746094 96.300781 C 778.675781 96.421875 778.628906 96.554688 778.597656 96.691406 C 778.570312 96.828125 778.5625 96.96875 778.574219 97.109375 C 778.589844 97.25 778.625 97.386719 778.679688 97.515625 C 778.738281 97.644531 778.8125 97.761719 778.90625 97.871094 L 782.957031 102.484375 L 794.242188 92.742188 Z M 790.984375 88.816406 " fill-opacity="1" fill-rule="nonzero"/></g></g></g><g clip-path="url(#4f78d04b34)"><g clip-path="url(#4b4e3e0abb)"><g clip-path="url(#3841f29420)"><path fill="#89a1ef" d="M 793.902344 73.371094 C 794.035156 73.144531 794.152344 72.914062 794.261719 72.679688 C 794.371094 72.441406 794.464844 72.199219 794.550781 71.953125 C 794.636719 71.707031 794.707031 71.457031 794.765625 71.203125 C 794.824219 70.953125 794.875 70.695312 794.910156 70.4375 C 794.941406 70.179688 794.964844 69.921875 794.972656 69.660156 C 794.984375 69.402344 794.980469 69.140625 794.960938 68.882812 C 794.945312 68.621094 794.917969 68.363281 794.875 68.109375 C 794.832031 67.851562 794.78125 67.59375 794.714844 67.34375 C 794.644531 67.09375 794.566406 66.84375 794.476562 66.601562 C 794.386719 66.355469 794.28125 66.117188 794.167969 65.882812 C 794.050781 65.652344 793.925781 65.421875 793.789062 65.203125 C 793.652344 64.980469 793.503906 64.765625 793.347656 64.558594 C 793.1875 64.351562 793.023438 64.152344 792.84375 63.964844 C 792.667969 63.773438 792.480469 63.589844 792.285156 63.417969 C 792.089844 63.246094 791.886719 63.085938 791.675781 62.933594 C 791.464844 62.78125 791.246094 62.640625 791.019531 62.507812 C 790.796875 62.378906 790.566406 62.257812 790.328125 62.148438 C 790.089844 62.042969 789.847656 61.945312 789.601562 61.859375 C 789.355469 61.777344 789.105469 61.703125 788.851562 61.644531 C 788.601562 61.585938 788.34375 61.535156 788.085938 61.5 C 787.828125 61.46875 787.566406 61.445312 787.308594 61.433594 C 787.046875 61.425781 786.789062 61.429688 786.527344 61.445312 C 786.269531 61.460938 786.007812 61.492188 785.753906 61.53125 C 785.496094 61.574219 785.242188 61.628906 784.992188 61.695312 C 784.738281 61.761719 784.492188 61.839844 784.246094 61.929688 C 784.003906 62.023438 783.765625 62.125 783.53125 62.238281 C 783.296875 62.351562 783.070312 62.476562 782.847656 62.613281 C 782.625 62.75 782.410156 62.898438 782.207031 63.058594 C 782 63.214844 781.800781 63.382812 781.609375 63.558594 C 781.417969 63.734375 781.238281 63.921875 781.066406 64.117188 C 780.894531 64.3125 780.730469 64.515625 780.578125 64.726562 C 780.429688 64.9375 780.285156 65.15625 780.15625 65.378906 C 780.023438 65.605469 779.90625 65.835938 779.796875 66.074219 C 779.6875 66.308594 779.59375 66.550781 779.507812 66.796875 C 779.421875 67.042969 779.351562 67.292969 779.292969 67.546875 C 779.234375 67.796875 779.1875 68.054688 779.152344 68.3125 C 779.117188 68.570312 779.09375 68.828125 779.085938 69.089844 C 779.074219 69.347656 779.082031 69.609375 779.097656 69.867188 C 779.113281 70.128906 779.140625 70.386719 779.183594 70.644531 C 779.226562 70.902344 779.277344 71.15625 779.347656 71.40625 C 779.414062 71.65625 779.492188 71.90625 779.582031 72.152344 C 779.675781 72.394531 779.777344 72.632812 779.890625 72.867188 C 780.007812 73.097656 780.132812 73.328125 780.269531 73.550781 C 780.40625 73.769531 780.554688 73.984375 780.710938 74.191406 C 780.871094 74.398438 781.039062 74.597656 781.214844 74.789062 C 781.394531 74.976562 781.578125 75.160156 781.773438 75.332031 C 781.96875 75.503906 782.171875 75.667969 782.382812 75.816406 C 782.59375 75.972656 782.8125 76.113281 783.039062 76.242188 C 783.261719 76.375 783.496094 76.492188 783.730469 76.601562 C 783.96875 76.707031 784.210938 76.804688 784.457031 76.890625 C 784.703125 76.972656 784.953125 77.046875 785.207031 77.105469 C 785.457031 77.164062 785.714844 77.210938 785.972656 77.246094 C 786.230469 77.28125 786.492188 77.304688 786.75 77.3125 C 787.011719 77.320312 787.269531 77.316406 787.527344 77.300781 C 787.789062 77.285156 788.046875 77.257812 788.304688 77.214844 C 788.5625 77.171875 788.816406 77.121094 789.066406 77.054688 C 789.316406 76.988281 789.566406 76.910156 789.8125 76.816406 C 790.054688 76.726562 790.292969 76.625 790.527344 76.507812 C 790.761719 76.394531 790.988281 76.269531 791.210938 76.132812 C 791.429688 75.996094 791.644531 75.847656 791.851562 75.691406 C 792.058594 75.535156 792.257812 75.367188 792.449219 75.191406 C 792.636719 75.015625 792.820312 74.828125 792.992188 74.632812 C 793.164062 74.4375 793.328125 74.234375 793.480469 74.023438 C 793.632812 73.8125 793.773438 73.59375 793.902344 73.371094 Z M 793.902344 73.371094 " fill-opacity="1" fill-rule="nonzero"/></g></g></g><g clip-path="url(#84b5e3e0f2)"><g clip-path="url(#9830395c96)"><g clip-path="url(#d519a854b0)"><path fill="#89a1ef" d="M 820.125 71.335938 L 816.695312 77.234375 C 816.449219 77.660156 816.121094 78 815.703125 78.257812 C 815.289062 78.515625 814.839844 78.660156 814.351562 78.6875 L 799.691406 79.625 C 798.890625 79.675781 798.113281 79.839844 797.363281 80.113281 C 796.609375 80.390625 795.914062 80.765625 795.265625 81.242188 C 795.105469 81.359375 794.949219 81.488281 794.796875 81.625 C 794.648438 81.761719 794.503906 81.90625 794.371094 82.054688 C 794.234375 82.207031 794.105469 82.363281 793.988281 82.527344 C 793.867188 82.691406 793.757812 82.863281 793.65625 83.035156 C 793.554688 83.210938 793.460938 83.390625 793.378906 83.578125 C 793.292969 83.761719 793.222656 83.953125 793.15625 84.144531 C 793.09375 84.335938 793.039062 84.53125 792.996094 84.726562 C 792.953125 84.925781 792.917969 85.125 792.894531 85.328125 C 792.871094 85.527344 792.859375 85.730469 792.855469 85.933594 C 792.851562 86.136719 792.859375 86.339844 792.878906 86.539062 C 792.894531 86.742188 792.925781 86.941406 792.960938 87.140625 C 793 87.339844 793.050781 87.539062 793.109375 87.730469 C 793.167969 87.925781 793.234375 88.117188 793.3125 88.304688 C 793.390625 88.488281 793.476562 88.671875 793.574219 88.851562 C 793.671875 89.03125 793.777344 89.203125 793.894531 89.371094 C 794.007812 89.539062 794.128906 89.699219 794.261719 89.851562 L 809.410156 107.824219 C 809.792969 108.277344 810.230469 108.671875 810.714844 109.007812 C 811.199219 109.347656 811.71875 109.617188 812.277344 109.820312 C 812.832031 110.023438 813.402344 110.152344 813.992188 110.207031 C 814.582031 110.261719 815.167969 110.238281 815.753906 110.136719 L 836.511719 106.546875 C 837.292969 106.410156 838.078125 106.410156 838.859375 106.554688 C 839.640625 106.691406 840.375 106.960938 841.0625 107.359375 L 850.515625 112.855469 C 850.75 112.988281 850.992188 113.101562 851.246094 113.1875 C 851.5 113.277344 851.761719 113.335938 852.027344 113.375 C 852.292969 113.410156 852.558594 113.421875 852.828125 113.402344 C 853.09375 113.386719 853.359375 113.34375 853.617188 113.277344 C 853.878906 113.207031 854.128906 113.113281 854.367188 112.996094 C 854.609375 112.878906 854.835938 112.738281 855.050781 112.574219 C 855.265625 112.414062 855.457031 112.230469 855.636719 112.03125 C 855.816406 111.828125 855.972656 111.613281 856.105469 111.382812 C 856.242188 111.148438 856.351562 110.90625 856.4375 110.652344 C 856.523438 110.398438 856.585938 110.136719 856.621094 109.875 C 856.65625 109.605469 856.667969 109.339844 856.648438 109.070312 C 856.632812 108.804688 856.589844 108.539062 856.519531 108.28125 C 856.453125 108.023438 856.359375 107.773438 856.238281 107.53125 C 856.121094 107.289062 855.980469 107.0625 855.816406 106.847656 C 855.652344 106.636719 855.472656 106.441406 855.269531 106.265625 C 855.070312 106.085938 854.851562 105.929688 854.621094 105.796875 L 839.195312 96.832031 C 838.765625 96.585938 838.300781 96.421875 837.808594 96.347656 C 837.3125 96.273438 836.824219 96.292969 836.335938 96.402344 L 821.242188 99.730469 C 820.753906 99.839844 820.261719 99.878906 819.761719 99.855469 C 819.261719 99.828125 818.773438 99.738281 818.300781 99.582031 C 817.824219 99.425781 817.378906 99.210938 816.960938 98.933594 C 816.546875 98.65625 816.171875 98.328125 815.84375 97.953125 L 808.148438 89.070312 L 803.210938 89.410156 C 803.085938 89.417969 802.964844 89.402344 802.851562 89.363281 C 802.734375 89.320312 802.628906 89.261719 802.539062 89.179688 C 802.445312 89.097656 802.371094 89 802.316406 88.890625 C 802.265625 88.777344 802.234375 88.664062 802.226562 88.539062 C 802.21875 88.417969 802.238281 88.300781 802.277344 88.183594 C 802.316406 88.070312 802.378906 87.964844 802.460938 87.875 C 802.539062 87.78125 802.636719 87.710938 802.746094 87.65625 C 802.855469 87.605469 802.972656 87.574219 803.09375 87.566406 L 808.207031 87.230469 C 808.363281 87.183594 808.523438 87.171875 808.6875 87.199219 L 814.921875 86.796875 C 815.226562 86.773438 815.523438 86.714844 815.816406 86.621094 C 816.105469 86.523438 816.378906 86.398438 816.636719 86.234375 C 816.894531 86.070312 817.128906 85.878906 817.339844 85.65625 C 817.550781 85.4375 817.734375 85.195312 817.882812 84.929688 L 824.351562 73.796875 C 824.433594 73.65625 824.5 73.511719 824.554688 73.359375 C 824.605469 73.207031 824.640625 73.050781 824.660156 72.894531 C 824.683594 72.734375 824.691406 72.574219 824.679688 72.414062 C 824.667969 72.253906 824.644531 72.09375 824.601562 71.941406 C 824.5625 71.785156 824.507812 71.636719 824.433594 71.492188 C 824.363281 71.347656 824.28125 71.210938 824.183594 71.082031 C 824.085938 70.957031 823.976562 70.839844 823.855469 70.734375 C 823.734375 70.625 823.605469 70.535156 823.464844 70.453125 C 823.328125 70.371094 823.179688 70.304688 823.03125 70.253906 C 822.878906 70.199219 822.722656 70.164062 822.5625 70.140625 C 822.40625 70.121094 822.242188 70.117188 822.085938 70.125 C 821.925781 70.136719 821.765625 70.160156 821.613281 70.203125 C 821.457031 70.242188 821.304688 70.300781 821.160156 70.371094 C 821.015625 70.4375 820.882812 70.523438 820.753906 70.621094 C 820.628906 70.71875 820.511719 70.828125 820.402344 70.949219 C 820.296875 71.066406 820.203125 71.199219 820.125 71.335938 Z M 820.125 71.335938 " fill-opacity="1" fill-rule="nonzero"/></g></g></g><g clip-path="url(#102fdba02a)"><g clip-path="url(#232714f6b4)"><g clip-path="url(#0bc2fb8b3b)"><path fill="#89a1ef" d="M 813.851562 112.042969 L 823.628906 119.191406 C 823.769531 119.292969 823.871094 119.425781 823.9375 119.585938 L 832.335938 139.125 C 832.445312 139.382812 832.574219 139.628906 832.730469 139.859375 C 832.886719 140.089844 833.0625 140.304688 833.261719 140.503906 C 833.457031 140.699219 833.671875 140.875 833.90625 141.03125 C 834.136719 141.1875 834.382812 141.316406 834.640625 141.425781 C 834.898438 141.53125 835.164062 141.613281 835.4375 141.667969 C 835.710938 141.722656 835.988281 141.75 836.269531 141.75 C 836.546875 141.75 836.824219 141.722656 837.097656 141.667969 C 837.371094 141.613281 837.636719 141.53125 837.894531 141.425781 C 838.152344 141.320312 838.398438 141.1875 838.628906 141.035156 C 838.859375 140.878906 839.074219 140.703125 839.273438 140.507812 C 839.46875 140.308594 839.648438 140.09375 839.800781 139.859375 C 839.957031 139.628906 840.089844 139.386719 840.195312 139.125 C 840.300781 138.871094 840.382812 138.601562 840.4375 138.332031 C 840.492188 138.054688 840.519531 137.78125 840.519531 137.5 C 840.519531 137.222656 840.492188 136.945312 840.4375 136.671875 C 840.382812 136.398438 840.300781 136.132812 840.195312 135.875 L 831.597656 114.464844 L 826.949219 110.089844 L 816.101562 111.96875 C 815.355469 112.09375 814.605469 112.121094 813.851562 112.042969 Z M 813.851562 112.042969 " fill-opacity="1" fill-rule="nonzero"/></g></g></g><g clip-path="url(#1c1ea54e47)"><g clip-path="url(#3f77c8d179)"><g clip-path="url(#4fffb1a150)"><path fill="#89a1ef" d="M 801.191406 121.214844 L 809.375 114.066406 C 809.476562 113.980469 809.570312 113.882812 809.648438 113.777344 C 809.734375 113.675781 809.804688 113.5625 809.867188 113.445312 C 809.925781 113.324219 809.976562 113.203125 810.011719 113.074219 C 810.046875 112.945312 810.070312 112.816406 810.082031 112.679688 C 810.09375 112.546875 810.089844 112.414062 810.074219 112.28125 C 810.058594 112.148438 810.03125 112.023438 809.988281 111.894531 C 809.949219 111.765625 809.894531 111.644531 809.832031 111.527344 C 809.765625 111.414062 809.691406 111.304688 809.601562 111.199219 L 808.453125 109.824219 L 797.183594 118.707031 L 799.269531 121.085938 C 799.390625 121.222656 799.53125 121.332031 799.691406 121.414062 C 799.851562 121.492188 800.023438 121.539062 800.203125 121.550781 C 800.382812 121.5625 800.558594 121.539062 800.730469 121.480469 C 800.902344 121.421875 801.054688 121.335938 801.191406 121.214844 Z M 801.191406 121.214844 " fill-opacity="1" fill-rule="nonzero"/></g></g></g><g clip-path="url(#07d6b0de4b)"><g clip-path="url(#a31136483b)"><g clip-path="url(#4826453ee5)"><path fill="#89a1ef" d="M 825.355469 75.757812 L 864.617188 98.574219 C 864.722656 98.632812 864.835938 98.671875 864.957031 98.691406 C 865.078125 98.707031 865.199219 98.699219 865.316406 98.667969 C 865.4375 98.636719 865.546875 98.585938 865.644531 98.507812 C 865.742188 98.433594 865.820312 98.34375 865.882812 98.238281 C 865.945312 98.132812 865.984375 98.019531 866 97.898438 C 866.015625 97.773438 866.007812 97.65625 865.976562 97.535156 C 865.945312 97.417969 865.890625 97.308594 865.816406 97.210938 C 865.742188 97.113281 865.652344 97.035156 865.546875 96.972656 L 826.238281 74.128906 C 826.160156 74.335938 826.066406 74.535156 825.957031 74.726562 Z M 825.355469 75.757812 " fill-opacity="1" fill-rule="nonzero"/></g></g></g><g clip-path="url(#4bcf05f8ca)"><g clip-path="url(#5fe0e14f55)"><g clip-path="url(#341a454307)"><path fill="#89a1ef" d="M 818.898438 69.863281 L 811.414062 65.515625 C 811.308594 65.453125 811.195312 65.414062 811.074219 65.398438 C 810.953125 65.382812 810.832031 65.390625 810.714844 65.421875 C 810.59375 65.453125 810.484375 65.507812 810.386719 65.582031 C 810.289062 65.652344 810.210938 65.746094 810.148438 65.851562 C 810.085938 65.957031 810.046875 66.070312 810.03125 66.191406 C 810.015625 66.3125 810.023438 66.433594 810.054688 66.550781 C 810.085938 66.671875 810.140625 66.78125 810.214844 66.878906 C 810.289062 66.976562 810.378906 67.054688 810.484375 67.117188 L 817.921875 71.4375 L 818.519531 70.40625 C 818.632812 70.214844 818.757812 70.035156 818.898438 69.863281 Z M 818.898438 69.863281 " fill-opacity="1" fill-rule="nonzero"/></g></g></g><g clip-path="url(#48a5d229ee)"><path fill="#2c2c2c" d="M 813.585938 152.378906 C 773.871094 152.378906 741.671875 157.335938 741.671875 163.453125 C 741.671875 169.574219 773.871094 174.53125 813.585938 174.53125 C 853.304688 174.53125 885.503906 169.574219 885.503906 163.453125 C 885.503906 157.335938 853.304688 152.378906 813.585938 152.378906 " fill-opacity="1" fill-rule="nonzero"/></g><g clip-path="url(#8e48af38c2)"><path fill="#89a1ef" d="M 813.609375 154.75 C 776.222656 154.75 745.910156 158.800781 745.910156 163.796875 C 745.910156 168.796875 776.222656 172.84375 813.609375 172.84375 C 851 172.84375 881.308594 168.796875 881.308594 163.796875 C 881.308594 158.800781 851 154.75 813.609375 154.75 " fill-opacity="1" fill-rule="nonzero"/></g></svg>