<svg xmlns="http://www.w3.org/2000/svg" xmlns:xlink="http://www.w3.org/1999/xlink" width="500" zoomAndPan="magnify" viewBox="0 0 375 374.999991" height="500" preserveAspectRatio="xMidYMid meet" version="1.0"><defs><clipPath id="e992267bc8"><path d="M 131 163 L 173 163 L 173 200 L 131 200 Z M 131 163 " clip-rule="nonzero"/></clipPath><clipPath id="4c4bb9ec86"><path d="M 58.121094 154.910156 L 126.328125 37.539062 L 316.972656 148.332031 L 248.765625 265.699219 Z M 58.121094 154.910156 " clip-rule="nonzero"/></clipPath><clipPath id="2bba1d416f"><path d="M 58.121094 154.910156 L 126.328125 37.539062 L 316.972656 148.332031 L 248.765625 265.699219 Z M 58.121094 154.910156 " clip-rule="nonzero"/></clipPath><clipPath id="d15bc9df58"><path d="M 116 144 L 157 144 L 157 182 L 116 182 Z M 116 144 " clip-rule="nonzero"/></clipPath><clipPath id="4edd832173"><path d="M 58.121094 154.910156 L 126.328125 37.539062 L 316.972656 148.332031 L 248.765625 265.699219 Z M 58.121094 154.910156 " clip-rule="nonzero"/></clipPath><clipPath id="e19db70a15"><path d="M 58.121094 154.910156 L 126.328125 37.539062 L 316.972656 148.332031 L 248.765625 265.699219 Z M 58.121094 154.910156 " clip-rule="nonzero"/></clipPath><clipPath id="f55569e6fe"><path d="M 103 129 L 141 129 L 141 165 L 103 165 Z M 103 129 " clip-rule="nonzero"/></clipPath><clipPath id="33b780f976"><path d="M 58.121094 154.910156 L 126.328125 37.539062 L 316.972656 148.332031 L 248.765625 265.699219 Z M 58.121094 154.910156 " clip-rule="nonzero"/></clipPath><clipPath id="1db1e940bb"><path d="M 58.121094 154.910156 L 126.328125 37.539062 L 316.972656 148.332031 L 248.765625 265.699219 Z M 58.121094 154.910156 " clip-rule="nonzero"/></clipPath><clipPath id="1f2a319e3c"><path d="M 104 65 L 143 65 L 143 104 L 104 104 Z M 104 65 " clip-rule="nonzero"/></clipPath><clipPath id="0c9b90833b"><path d="M 58.121094 154.910156 L 126.328125 37.539062 L 316.972656 148.332031 L 248.765625 265.699219 Z M 58.121094 154.910156 " clip-rule="nonzero"/></clipPath><clipPath id="fb8ca58ced"><path d="M 58.121094 154.910156 L 126.328125 37.539062 L 316.972656 148.332031 L 248.765625 265.699219 Z M 58.121094 154.910156 " clip-rule="nonzero"/></clipPath><clipPath id="8434815403"><path d="M 137 86 L 291 86 L 291 191 L 137 191 Z M 137 86 " clip-rule="nonzero"/></clipPath><clipPath id="3981caf645"><path d="M 58.121094 154.910156 L 126.328125 37.539062 L 316.972656 148.332031 L 248.765625 265.699219 Z M 58.121094 154.910156 " clip-rule="nonzero"/></clipPath><clipPath id="93b75070fa"><path d="M 58.121094 154.910156 L 126.328125 37.539062 L 316.972656 148.332031 L 248.765625 265.699219 Z M 58.121094 154.910156 " clip-rule="nonzero"/></clipPath><clipPath id="d7cf232deb"><path d="M 187 182 L 253 182 L 253 259 L 187 259 Z M 187 182 " clip-rule="nonzero"/></clipPath><clipPath id="2ff185b4bd"><path d="M 58.121094 154.910156 L 126.328125 37.539062 L 316.972656 148.332031 L 248.765625 265.699219 Z M 58.121094 154.910156 " clip-rule="nonzero"/></clipPath><clipPath id="d92f782f44"><path d="M 58.121094 154.910156 L 126.328125 37.539062 L 316.972656 148.332031 L 248.765625 265.699219 Z M 58.121094 154.910156 " clip-rule="nonzero"/></clipPath><clipPath id="83b5df45df"><path d="M 147 181 L 179 181 L 179 211 L 147 211 Z M 147 181 " clip-rule="nonzero"/></clipPath><clipPath id="0304ceed18"><path d="M 58.121094 154.910156 L 126.328125 37.539062 L 316.972656 148.332031 L 248.765625 265.699219 Z M 58.121094 154.910156 " clip-rule="nonzero"/></clipPath><clipPath id="dc6230377a"><path d="M 58.121094 154.910156 L 126.328125 37.539062 L 316.972656 148.332031 L 248.765625 265.699219 Z M 58.121094 154.910156 " clip-rule="nonzero"/></clipPath><clipPath id="2d07b55bcb"><path d="M 215 96 L 314 96 L 314 156 L 215 156 Z M 215 96 " clip-rule="nonzero"/></clipPath><clipPath id="a652bf2d20"><path d="M 58.121094 154.910156 L 126.328125 37.539062 L 316.972656 148.332031 L 248.765625 265.699219 Z M 58.121094 154.910156 " clip-rule="nonzero"/></clipPath><clipPath id="bc67b983e8"><path d="M 58.121094 154.910156 L 126.328125 37.539062 L 316.972656 148.332031 L 248.765625 265.699219 Z M 58.121094 154.910156 " clip-rule="nonzero"/></clipPath><clipPath id="eee4276e64"><path d="M 178 75 L 201 75 L 201 90 L 178 90 Z M 178 75 " clip-rule="nonzero"/></clipPath><clipPath id="0da9662450"><path d="M 58.121094 154.910156 L 126.328125 37.539062 L 316.972656 148.332031 L 248.765625 265.699219 Z M 58.121094 154.910156 " clip-rule="nonzero"/></clipPath><clipPath id="608b7e556c"><path d="M 58.121094 154.910156 L 126.328125 37.539062 L 316.972656 148.332031 L 248.765625 265.699219 Z M 58.121094 154.910156 " clip-rule="nonzero"/></clipPath><clipPath id="dea40887a8"><path d="M 14.480469 284.128906 L 360.230469 284.128906 L 360.230469 337.378906 L 14.480469 337.378906 Z M 14.480469 284.128906 " clip-rule="nonzero"/></clipPath><clipPath id="aa9fef3433"><path d="M 24.65625 289.828125 L 350.15625 289.828125 L 350.15625 333.328125 L 24.65625 333.328125 Z M 24.65625 289.828125 " clip-rule="nonzero"/></clipPath></defs><g clip-path="url(#e992267bc8)"><g clip-path="url(#4c4bb9ec86)"><g clip-path="url(#2bba1d416f)"><path fill="#89a1ef" d="M 159.648438 163.359375 L 131.992188 185.019531 L 144.917969 199.792969 L 172.125 178.382812 Z M 159.648438 163.359375 " fill-opacity="1" fill-rule="nonzero"/></g></g></g><g clip-path="url(#d15bc9df58)"><g clip-path="url(#4edd832173)"><g clip-path="url(#e19db70a15)"><path fill="#89a1ef" d="M 143.710938 144.191406 L 116.648438 167.53125 L 129.035156 181.683594 L 156.800781 159.929688 Z M 143.710938 144.191406 " fill-opacity="1" fill-rule="nonzero"/></g></g></g><g clip-path="url(#f55569e6fe)"><g clip-path="url(#33b780f976)"><g clip-path="url(#1db1e940bb)"><path fill="#89a1ef" d="M 133.019531 131.335938 C 132.738281 131 132.429688 130.691406 132.089844 130.417969 C 131.75 130.144531 131.382812 129.910156 130.992188 129.710938 C 130.605469 129.511719 130.199219 129.351562 129.777344 129.238281 C 129.355469 129.121094 128.929688 129.046875 128.492188 129.015625 C 128.054688 128.988281 127.621094 129.003906 127.1875 129.0625 C 126.753906 129.121094 126.332031 129.222656 125.921875 129.367188 C 125.507812 129.511719 125.113281 129.699219 124.742188 129.921875 C 124.367188 130.148438 124.019531 130.410156 123.699219 130.707031 L 104.230469 148.554688 C 103.984375 148.78125 103.777344 149.039062 103.601562 149.324219 C 103.433594 149.617188 103.316406 149.933594 103.246094 150.265625 C 103.175781 150.597656 103.15625 150.933594 103.191406 151.269531 C 103.226562 151.609375 103.3125 151.933594 103.445312 152.246094 C 103.582031 152.558594 103.761719 152.839844 103.984375 153.097656 L 113.722656 164.1875 L 140.851562 140.777344 Z M 133.019531 131.335938 " fill-opacity="1" fill-rule="nonzero"/></g></g></g><g clip-path="url(#1f2a319e3c)"><g clip-path="url(#0c9b90833b)"><g clip-path="url(#fb8ca58ced)"><path fill="#89a1ef" d="M 140.039062 94.207031 C 140.351562 93.664062 140.640625 93.109375 140.898438 92.542969 C 141.160156 91.972656 141.390625 91.390625 141.59375 90.800781 C 141.796875 90.210938 141.96875 89.609375 142.113281 89 C 142.253906 88.390625 142.371094 87.777344 142.453125 87.15625 C 142.535156 86.539062 142.589844 85.914062 142.609375 85.289062 C 142.632812 84.664062 142.625 84.039062 142.582031 83.414062 C 142.542969 82.792969 142.472656 82.171875 142.375 81.554688 C 142.273438 80.9375 142.144531 80.324219 141.984375 79.71875 C 141.820312 79.113281 141.632812 78.519531 141.414062 77.933594 C 141.195312 77.347656 140.945312 76.773438 140.671875 76.210938 C 140.394531 75.648438 140.09375 75.101562 139.765625 74.570312 C 139.433594 74.039062 139.082031 73.523438 138.703125 73.027344 C 138.320312 72.527344 137.917969 72.050781 137.492188 71.59375 C 137.066406 71.132812 136.617188 70.699219 136.148438 70.285156 C 135.675781 69.871094 135.1875 69.480469 134.679688 69.113281 C 134.171875 68.75 133.648438 68.410156 133.109375 68.09375 C 132.566406 67.78125 132.011719 67.492188 131.441406 67.230469 C 130.871094 66.972656 130.292969 66.742188 129.699219 66.539062 C 129.105469 66.335938 128.507812 66.160156 127.898438 66.015625 C 127.289062 65.875 126.671875 65.757812 126.054688 65.675781 C 125.433594 65.59375 124.808594 65.539062 124.183594 65.515625 C 123.558594 65.492188 122.933594 65.503906 122.308594 65.542969 C 121.683594 65.578125 121.0625 65.648438 120.445312 65.75 C 119.828125 65.847656 119.21875 65.980469 118.613281 66.140625 C 118.007812 66.296875 117.414062 66.488281 116.824219 66.707031 C 116.238281 66.925781 115.664062 67.171875 115.105469 67.445312 C 114.542969 67.722656 113.996094 68.023438 113.460938 68.351562 C 112.929688 68.679688 112.414062 69.035156 111.917969 69.414062 C 111.421875 69.792969 110.941406 70.195312 110.484375 70.621094 C 110.027344 71.046875 109.589844 71.496094 109.179688 71.964844 C 108.765625 72.433594 108.375 72.921875 108.007812 73.425781 C 107.644531 73.933594 107.304688 74.457031 106.988281 75 C 106.675781 75.539062 106.386719 76.09375 106.128906 76.664062 C 105.867188 77.234375 105.636719 77.8125 105.433594 78.40625 C 105.230469 78.996094 105.058594 79.597656 104.914062 80.207031 C 104.773438 80.8125 104.660156 81.429688 104.574219 82.046875 C 104.492188 82.667969 104.441406 83.289062 104.417969 83.914062 C 104.394531 84.539062 104.40625 85.164062 104.445312 85.789062 C 104.484375 86.414062 104.554688 87.035156 104.652344 87.652344 C 104.753906 88.269531 104.882812 88.882812 105.046875 89.484375 C 105.207031 90.089844 105.394531 90.6875 105.613281 91.273438 C 105.832031 91.859375 106.082031 92.433594 106.355469 92.996094 C 106.632812 93.554688 106.933594 94.101562 107.261719 94.636719 C 107.59375 95.167969 107.945312 95.683594 108.328125 96.179688 C 108.707031 96.675781 109.109375 97.15625 109.535156 97.613281 C 109.964844 98.070312 110.410156 98.507812 110.878906 98.921875 C 111.351562 99.335938 111.839844 99.726562 112.347656 100.089844 C 112.855469 100.457031 113.378906 100.796875 113.921875 101.113281 C 114.460938 101.425781 115.015625 101.710938 115.585938 101.972656 C 116.15625 102.230469 116.738281 102.460938 117.328125 102.664062 C 117.921875 102.867188 118.523438 103.039062 119.128906 103.183594 C 119.738281 103.328125 120.355469 103.441406 120.972656 103.523438 C 121.59375 103.605469 122.21875 103.660156 122.84375 103.679688 C 123.46875 103.703125 124.09375 103.695312 124.714844 103.65625 C 125.339844 103.617188 125.960938 103.546875 126.578125 103.449219 C 127.195312 103.347656 127.808594 103.21875 128.414062 103.058594 C 129.015625 102.898438 129.613281 102.710938 130.199219 102.492188 C 130.785156 102.273438 131.359375 102.027344 131.921875 101.75 C 132.484375 101.476562 133.03125 101.175781 133.5625 100.847656 C 134.09375 100.519531 134.609375 100.164062 135.105469 99.785156 C 135.605469 99.40625 136.082031 99.003906 136.539062 98.582031 C 136.996094 98.15625 137.433594 97.707031 137.847656 97.238281 C 138.261719 96.769531 138.652344 96.28125 139.019531 95.777344 C 139.382812 95.269531 139.722656 94.746094 140.039062 94.207031 Z M 140.039062 94.207031 " fill-opacity="1" fill-rule="nonzero"/></g></g></g><g clip-path="url(#8434815403)"><g clip-path="url(#3981caf645)"><g clip-path="url(#93b75070fa)"><path fill="#89a1ef" d="M 203.066406 89.316406 L 194.824219 103.496094 C 194.238281 104.515625 193.445312 105.332031 192.445312 105.953125 C 191.449219 106.570312 190.363281 106.917969 189.1875 106.988281 L 153.949219 109.238281 C 152.027344 109.363281 150.160156 109.753906 148.351562 110.417969 C 146.542969 111.078125 144.867188 111.980469 143.316406 113.125 C 142.925781 113.414062 142.550781 113.722656 142.1875 114.050781 C 141.828125 114.378906 141.484375 114.722656 141.160156 115.085938 C 140.832031 115.449219 140.527344 115.824219 140.242188 116.21875 C 139.953125 116.613281 139.6875 117.023438 139.445312 117.441406 C 139.199219 117.863281 138.976562 118.296875 138.777344 118.742188 C 138.574219 119.183594 138.398438 119.640625 138.246094 120.101562 C 138.089844 120.5625 137.960938 121.03125 137.855469 121.507812 C 137.75 121.984375 137.667969 122.464844 137.613281 122.949219 C 137.554688 123.429688 137.523438 123.917969 137.515625 124.40625 C 137.507812 124.890625 137.527344 125.378906 137.570312 125.863281 C 137.613281 126.347656 137.683594 126.832031 137.773438 127.308594 C 137.867188 127.789062 137.984375 128.261719 138.125 128.726562 C 138.265625 129.195312 138.429688 129.652344 138.617188 130.101562 C 138.804688 130.550781 139.015625 130.992188 139.25 131.421875 C 139.480469 131.847656 139.734375 132.265625 140.011719 132.667969 C 140.285156 133.070312 140.582031 133.457031 140.898438 133.828125 L 177.316406 177.027344 C 178.238281 178.113281 179.28125 179.0625 180.445312 179.875 C 181.613281 180.691406 182.863281 181.339844 184.203125 181.828125 C 185.539062 182.316406 186.914062 182.625 188.332031 182.753906 C 189.746094 182.882812 191.15625 182.828125 192.558594 182.589844 L 242.457031 173.957031 C 244.339844 173.628906 246.222656 173.632812 248.101562 173.972656 C 249.984375 174.308594 251.75 174.957031 253.402344 175.914062 L 276.128906 189.121094 C 276.6875 189.445312 277.269531 189.714844 277.882812 189.921875 C 278.492188 190.132812 279.117188 190.28125 279.757812 190.367188 C 280.394531 190.457031 281.035156 190.480469 281.679688 190.4375 C 282.324219 190.398438 282.960938 190.296875 283.582031 190.132812 C 284.207031 189.96875 284.808594 189.746094 285.386719 189.460938 C 285.96875 189.179688 286.511719 188.839844 287.027344 188.449219 C 287.539062 188.058594 288.007812 187.621094 288.4375 187.136719 C 288.863281 186.65625 289.238281 186.132812 289.5625 185.578125 C 289.886719 185.019531 290.152344 184.4375 290.359375 183.824219 C 290.570312 183.214844 290.71875 182.589844 290.804688 181.953125 C 290.886719 181.3125 290.910156 180.671875 290.871094 180.027344 C 290.828125 179.382812 290.726562 178.75 290.558594 178.125 C 290.394531 177.503906 290.167969 176.902344 289.882812 176.324219 C 289.601562 175.742188 289.261719 175.199219 288.871094 174.683594 C 288.476562 174.171875 288.039062 173.703125 287.554688 173.277344 C 287.070312 172.851562 286.550781 172.476562 285.992188 172.152344 L 248.914062 150.605469 C 247.875 150.007812 246.761719 149.621094 245.578125 149.441406 C 244.390625 149.261719 243.214844 149.304688 242.042969 149.574219 L 205.757812 157.570312 C 204.585938 157.832031 203.398438 157.929688 202.199219 157.871094 C 200.996094 157.808594 199.824219 157.59375 198.683594 157.214844 C 197.542969 156.839844 196.46875 156.320312 195.46875 155.65625 C 194.46875 154.988281 193.570312 154.203125 192.78125 153.296875 L 174.277344 131.941406 L 162.410156 132.765625 C 162.113281 132.785156 161.824219 132.746094 161.546875 132.648438 C 161.265625 132.550781 161.015625 132.40625 160.792969 132.207031 C 160.570312 132.011719 160.394531 131.78125 160.265625 131.515625 C 160.136719 131.246094 160.0625 130.964844 160.046875 130.671875 C 160.027344 130.378906 160.070312 130.09375 160.167969 129.816406 C 160.261719 129.539062 160.410156 129.289062 160.605469 129.070312 C 160.800781 128.851562 161.027344 128.675781 161.292969 128.550781 C 161.554688 128.421875 161.835938 128.347656 162.128906 128.328125 L 174.421875 127.519531 C 174.800781 127.40625 175.183594 127.378906 175.574219 127.445312 L 190.566406 126.476562 C 191.296875 126.425781 192.011719 126.285156 192.710938 126.058594 C 193.40625 125.828125 194.066406 125.519531 194.6875 125.128906 C 195.308594 124.734375 195.871094 124.273438 196.378906 123.742188 C 196.886719 123.214844 197.320312 122.628906 197.683594 121.988281 L 213.234375 95.226562 C 213.429688 94.890625 213.589844 94.542969 213.714844 94.179688 C 213.839844 93.8125 213.925781 93.4375 213.976562 93.058594 C 214.027344 92.675781 214.042969 92.289062 214.019531 91.90625 C 213.992188 91.519531 213.933594 91.140625 213.832031 90.769531 C 213.734375 90.394531 213.601562 90.035156 213.429688 89.6875 C 213.261719 89.34375 213.058594 89.015625 212.824219 88.707031 C 212.589844 88.402344 212.328125 88.121094 212.039062 87.867188 C 211.75 87.609375 211.4375 87.386719 211.101562 87.191406 C 210.769531 86.996094 210.417969 86.835938 210.054688 86.710938 C 209.6875 86.585938 209.316406 86.5 208.933594 86.445312 C 208.550781 86.394531 208.164062 86.382812 207.78125 86.40625 C 207.394531 86.429688 207.015625 86.492188 206.644531 86.589844 C 206.269531 86.6875 205.910156 86.824219 205.5625 86.992188 C 205.214844 87.160156 204.890625 87.363281 204.582031 87.597656 C 204.277344 87.832031 203.996094 88.09375 203.738281 88.382812 C 203.484375 88.671875 203.261719 88.984375 203.066406 89.316406 Z M 203.066406 89.316406 " fill-opacity="1" fill-rule="nonzero"/></g></g></g><g clip-path="url(#d7cf232deb)"><g clip-path="url(#2ff185b4bd)"><g clip-path="url(#d92f782f44)"><path fill="#89a1ef" d="M 187.992188 187.167969 L 211.496094 204.351562 C 211.832031 204.597656 212.078125 204.914062 212.238281 205.296875 L 232.425781 252.265625 C 232.683594 252.886719 233 253.476562 233.371094 254.035156 C 233.746094 254.589844 234.167969 255.105469 234.644531 255.582031 C 235.117188 256.054688 235.636719 256.480469 236.195312 256.851562 C 236.75 257.226562 237.339844 257.539062 237.960938 257.796875 C 238.582031 258.054688 239.222656 258.25 239.878906 258.378906 C 240.539062 258.511719 241.203125 258.578125 241.875 258.578125 C 242.542969 258.578125 243.210938 258.511719 243.867188 258.382812 C 244.527344 258.25 245.164062 258.058594 245.785156 257.800781 C 246.40625 257.542969 246.996094 257.230469 247.550781 256.859375 C 248.109375 256.484375 248.625 256.0625 249.101562 255.589844 C 249.574219 255.113281 250 254.597656 250.371094 254.039062 C 250.746094 253.484375 251.058594 252.894531 251.316406 252.273438 C 251.574219 251.65625 251.765625 251.015625 251.898438 250.359375 C 252.027344 249.699219 252.09375 249.035156 252.09375 248.367188 C 252.09375 247.695312 252.027344 247.03125 251.898438 246.371094 C 251.765625 245.714844 251.574219 245.074219 251.316406 244.453125 L 230.648438 192.988281 L 219.472656 182.476562 L 193.402344 186.992188 C 191.605469 187.292969 189.804688 187.355469 187.992188 187.167969 Z M 187.992188 187.167969 " fill-opacity="1" fill-rule="nonzero"/></g></g></g><g clip-path="url(#83b5df45df)"><g clip-path="url(#0304ceed18)"><g clip-path="url(#dc6230377a)"><path fill="#89a1ef" d="M 157.554688 209.21875 L 177.230469 192.03125 C 177.472656 191.824219 177.695312 191.59375 177.890625 191.339844 C 178.089844 191.089844 178.261719 190.820312 178.410156 190.535156 C 178.554688 190.25 178.671875 189.953125 178.757812 189.644531 C 178.84375 189.335938 178.902344 189.023438 178.925781 188.703125 C 178.953125 188.382812 178.945312 188.0625 178.910156 187.746094 C 178.871094 187.425781 178.804688 187.117188 178.707031 186.808594 C 178.609375 186.503906 178.480469 186.210938 178.324219 185.933594 C 178.167969 185.652344 177.988281 185.390625 177.777344 185.144531 L 175.011719 181.835938 L 147.921875 203.183594 L 152.941406 208.90625 C 153.226562 209.234375 153.5625 209.496094 153.953125 209.691406 C 154.339844 209.882812 154.75 209.996094 155.183594 210.023438 C 155.617188 210.054688 156.039062 210 156.449219 209.859375 C 156.859375 209.71875 157.226562 209.507812 157.554688 209.21875 Z M 157.554688 209.21875 " fill-opacity="1" fill-rule="nonzero"/></g></g></g><g clip-path="url(#2d07b55bcb)"><g clip-path="url(#a652bf2d20)"><g clip-path="url(#bc67b983e8)"><path fill="#89a1ef" d="M 215.644531 99.945312 L 310.019531 154.789062 C 310.273438 154.9375 310.546875 155.03125 310.839844 155.070312 C 311.132812 155.113281 311.421875 155.09375 311.707031 155.019531 C 311.992188 154.941406 312.253906 154.816406 312.488281 154.636719 C 312.722656 154.457031 312.914062 154.242188 313.0625 153.984375 C 313.210938 153.730469 313.304688 153.457031 313.34375 153.164062 C 313.382812 152.871094 313.363281 152.582031 313.289062 152.296875 C 313.214844 152.011719 313.085938 151.75 312.90625 151.515625 C 312.726562 151.28125 312.511719 151.089844 312.253906 150.941406 L 217.765625 96.03125 C 217.582031 96.527344 217.355469 97.007812 217.085938 97.464844 Z M 215.644531 99.945312 " fill-opacity="1" fill-rule="nonzero"/></g></g></g><g clip-path="url(#eee4276e64)"><g clip-path="url(#0da9662450)"><g clip-path="url(#608b7e556c)"><path fill="#89a1ef" d="M 200.125 85.777344 L 182.132812 75.324219 C 181.878906 75.175781 181.605469 75.082031 181.3125 75.042969 C 181.019531 75.003906 180.730469 75.019531 180.445312 75.097656 C 180.160156 75.171875 179.898438 75.300781 179.664062 75.480469 C 179.429688 75.65625 179.238281 75.875 179.089844 76.128906 C 178.941406 76.386719 178.847656 76.660156 178.808594 76.953125 C 178.769531 77.242188 178.789062 77.53125 178.863281 77.816406 C 178.941406 78.101562 179.066406 78.363281 179.246094 78.597656 C 179.425781 78.832031 179.644531 79.023438 179.898438 79.171875 L 197.773438 89.558594 L 199.214844 87.078125 C 199.480469 86.617188 199.78125 86.1875 200.125 85.777344 Z M 200.125 85.777344 " fill-opacity="1" fill-rule="nonzero"/></g></g></g><g clip-path="url(#dea40887a8)"><path fill="#2c2c2c" d="M 187.355469 284.128906 C 91.878906 284.128906 14.480469 296.050781 14.480469 310.753906 C 14.480469 325.460938 91.878906 337.378906 187.355469 337.378906 C 282.828125 337.378906 360.226562 325.460938 360.226562 310.753906 C 360.226562 296.050781 282.828125 284.128906 187.355469 284.128906 " fill-opacity="1" fill-rule="nonzero"/></g><g clip-path="url(#aa9fef3433)"><path fill="#89a1ef" d="M 187.40625 289.828125 C 97.53125 289.828125 24.671875 299.566406 24.671875 311.578125 C 24.671875 323.59375 97.53125 333.328125 187.40625 333.328125 C 277.285156 333.328125 350.144531 323.59375 350.144531 311.578125 C 350.144531 299.566406 277.285156 289.828125 187.40625 289.828125 " fill-opacity="1" fill-rule="nonzero"/></g></svg>